<svg width="64" height="64" viewBox="0 0 64 64" fill="none" xmlns="http://www.w3.org/2000/svg">
<path d="M32 64C49.6731 64 64 49.6731 64 32C64 14.3269 49.6731 0 32 0C14.3269 0 0 14.3269 0 32C0 49.6731 14.3269 64 32 64Z" fill="#F9FAFB"/>
<path d="M19.402 15.8586V48.1412H44.5981V23.7324H37.5117C37.0994 23.7324 36.7244 23.3573 36.7243 22.9451V15.8586H19.402ZM38.2991 16.646V22.1577H43.8107L38.2991 16.646ZM23.7326 28.4567H40.2675C40.7024 28.4567 41.0549 28.8092 41.0549 29.2441C41.0549 29.6789 40.7024 30.0314 40.2675 30.0314H23.7326C23.2977 30.0314 22.9452 29.6789 22.9452 29.2441C22.9452 28.8092 23.2977 28.4567 23.7326 28.4567ZM23.7326 34.7557H40.2675C40.7024 34.7557 41.0549 35.1082 41.0549 35.5431C41.0549 35.978 40.7024 36.3305 40.2675 36.3305H23.7326C23.2977 36.3305 22.9452 35.978 22.9452 35.5431C22.9452 35.1082 23.2977 34.7557 23.7326 34.7557ZM23.7326 41.0548H40.2675C40.7024 41.0548 41.0549 41.4073 41.0549 41.8421C41.0549 42.277 40.7024 42.6295 40.2675 42.6295H23.7326C23.2977 42.6295 22.9452 42.277 22.9452 41.8421C22.9452 41.4073 23.2977 41.0548 23.7326 41.0548Z" fill="#00D395"/>
</svg>
