<svg width="65" height="64" viewBox="0 0 65 64" fill="none" xmlns="http://www.w3.org/2000/svg">
<g clip-path="url(#clip0_1780_6)">
<path d="M32.1421 64C49.8152 64 64.1421 49.6731 64.1421 32C64.1421 14.3269 49.8152 0 32.1421 0C14.469 0 0.14209 14.3269 0.14209 32C0.14209 49.6731 14.469 64 32.1421 64Z" fill="#103F68"/>
<path d="M32.1021 10.0361L51.1421 21.0021V43.0021L32.1241 54.0001L31.9701 53.9621L13.1421 43.0021V21.0021L31.9701 10.0361H32.1021V10.0361ZM32.0401 12.3121L15.1421 22.1521V41.8521L32.0381 51.6901L34.1021 50.4961L49.1421 41.8461V22.1561L34.1021 13.4561L32.0401 12.3121V12.3121ZM17.7601 33.5321L22.7621 29.7921L27.1841 32.6161V37.6961L30.5301 40.9201L30.5281 42.4321L27.3041 45.4521H24.5821L17.7621 33.5321H17.7601ZM33.5661 42.4361L33.5601 40.9161L36.8941 37.6961V32.6161L41.2681 29.7561L46.2601 33.5341L39.4741 45.4181H36.7861L33.5661 42.4361ZM28.8261 32.6161L27.1981 28.3541H36.8741L35.2781 32.6161L35.7501 37.3801L32.0161 37.3881L28.3261 37.3941L28.8261 32.6161V32.6161ZM32.0161 27.1861L22.8201 27.1821L24.5301 19.5421H39.4581L41.2581 27.1921L32.0161 27.1861Z" fill="white"/>
</g>
<defs>
<clipPath id="clip0_1780_6">
<rect width="64" height="64" fill="white" transform="translate(0.14209)"/>
</clipPath>
</defs>
</svg>
